<?xml version="1.0" encoding="UTF-8"?>
<!DOCTYPE svg PUBLIC "-//W3C//DTD SVG 1.1//EN" "http://www.w3.org/Graphics/SVG/1.1/DTD/svg11.dtd">
<svg xmlns="http://www.w3.org/2000/svg" version="1.1" width="973px" height="587px" style="shape-rendering:geometricPrecision; text-rendering:geometricPrecision; image-rendering:optimizeQuality; fill-rule:evenodd; clip-rule:evenodd" xmlns:xlink="http://www.w3.org/1999/xlink">
<g><path style="opacity:0.96" fill="#cccccc" d="M 462.5,-0.5 C 473.5,-0.5 484.5,-0.5 495.5,-0.5C 495.5,7.16667 495.5,14.8333 495.5,22.5C 484.5,22.5 473.5,22.5 462.5,22.5C 462.5,14.8333 462.5,7.16667 462.5,-0.5 Z"/></g>
<g><path style="opacity:0.951" fill="#3f3c56" d="M 647.5,-0.5 C 658.5,-0.5 669.5,-0.5 680.5,-0.5C 680.5,7.16667 680.5,14.8333 680.5,22.5C 669.5,22.5 658.5,22.5 647.5,22.5C 647.5,14.8333 647.5,7.16667 647.5,-0.5 Z"/></g>
<g><path style="opacity:0.208" fill="#7e95b3" d="M 354.5,-0.5 C 354.833,-0.5 355.167,-0.5 355.5,-0.5C 355.5,6.83333 355.5,14.1667 355.5,21.5C 365.833,21.5 376.167,21.5 386.5,21.5C 386.5,14.1667 386.5,6.83333 386.5,-0.5C 386.833,-0.5 387.167,-0.5 387.5,-0.5C 387.5,7.16667 387.5,14.8333 387.5,22.5C 376.5,22.5 365.5,22.5 354.5,22.5C 354.5,14.8333 354.5,7.16667 354.5,-0.5 Z"/></g>
<g><path style="opacity:1" fill="#9f7ada" d="M 355.5,-0.5 C 365.833,-0.5 376.167,-0.5 386.5,-0.5C 386.5,6.83333 386.5,14.1667 386.5,21.5C 376.167,21.5 365.833,21.5 355.5,21.5C 355.5,14.1667 355.5,6.83333 355.5,-0.5 Z"/></g>
<g><path style="opacity:0.955" fill="#e6e6e6" d="M 461.5,106.5 C 461.5,105.5 461.5,104.5 461.5,103.5C 464.05,89.2179 472.383,84.0512 486.5,88C 497.211,95.0098 499.378,104.176 493,115.5C 485.145,122.457 476.645,123.29 467.5,118C 464.306,114.779 462.306,110.946 461.5,106.5 Z"/></g>
<g><path style="opacity:0.952" fill="#e6e6e6" d="M 845.5,106.5 C 845.5,105.5 845.5,104.5 845.5,103.5C 846.212,92.6218 852.045,86.9551 863,86.5C 879.679,90.1933 884.346,99.86 877,115.5C 869.704,122.046 861.537,123.213 852.5,119C 848.208,115.915 845.875,111.749 845.5,106.5 Z"/></g>
<g><path style="opacity:0.984" fill="#100f15" d="M 163.5,89.5 C 194.191,86.3931 216.024,98.7264 229,126.5C 229.794,129.471 230.461,132.471 231,135.5C 231.462,147.9 232.629,160.234 234.5,172.5C 234.43,173.772 234.097,174.938 233.5,176C 235.366,184.386 236.866,192.886 238,201.5C 239.039,203.746 240.206,205.913 241.5,208C 233.115,212.68 224.115,215.013 214.5,215C 213.54,213.581 212.707,212.081 212,210.5C 211.375,213.612 209.542,215.445 206.5,216C 182.257,219.603 157.923,219.936 133.5,217C 131.667,216.5 130.5,215.333 130,213.5C 129,214.5 128,215.5 127,216.5C 122.554,215.263 118.054,214.097 113.5,213C 111.998,212.417 110.665,211.584 109.5,210.5C 115.779,198.453 118.446,185.619 117.5,172C 116.742,160.169 116.576,148.336 117,136.5C 122.65,111.017 138.15,95.3505 163.5,89.5 Z"/></g>
<g><path style="opacity:0.825" fill="#3e3d56" d="M 461.5,103.5 C 461.5,104.5 461.5,105.5 461.5,106.5C 449.586,106.179 437.753,106.512 426,107.5C 425.5,123.83 425.333,140.163 425.5,156.5C 459.5,156.5 493.5,156.5 527.5,156.5C 527.5,157.5 527.5,158.5 527.5,159.5C 481.167,159.5 434.833,159.5 388.5,159.5C 388.5,158.5 388.5,157.5 388.5,156.5C 399.833,156.5 411.167,156.5 422.5,156.5C 422.028,139.072 422.528,121.739 424,104.5C 436.42,103.511 448.92,103.178 461.5,103.5 Z"/></g>
<g><path style="opacity:0.785" fill="#3e3d56" d="M 845.5,103.5 C 845.5,104.5 845.5,105.5 845.5,106.5C 833.586,106.179 821.753,106.512 810,107.5C 809.5,123.83 809.333,140.163 809.5,156.5C 824.167,156.5 838.833,156.5 853.5,156.5C 853.5,157.5 853.5,158.5 853.5,159.5C 811.833,159.5 770.167,159.5 728.5,159.5C 728.5,158.5 728.5,157.5 728.5,156.5C 754.5,156.5 780.5,156.5 806.5,156.5C 806.333,139.497 806.5,122.497 807,105.5C 807.5,105 808,104.5 808.5,104C 820.829,103.5 833.162,103.333 845.5,103.5 Z"/></g>
<g><path style="opacity:1" fill="#d9b392" d="M 178.5,130.5 C 186.574,151.549 201.907,163.882 224.5,167.5C 226.917,171.707 227.084,176.041 225,180.5C 210.536,209.313 187.702,219.48 156.5,211C 139.437,203.604 128.437,190.937 123.5,173C 123.759,171.739 124.426,170.739 125.5,170C 138.718,162.449 148.885,151.949 156,138.5C 156.296,145.114 154.463,151.114 150.5,156.5C 150.833,156.833 151.167,157.167 151.5,157.5C 160.385,153.109 166.219,146.109 169,136.5C 171.351,145.199 176.185,152.199 183.5,157.5C 183.833,156.833 184.167,156.167 184.5,155.5C 180.457,147.662 178.457,139.329 178.5,130.5 Z"/></g>
<g><path style="opacity:1" fill="#9d7cd7" d="M 388.5,156.5 C 388.5,157.5 388.5,158.5 388.5,159.5C 384.999,172.586 376.665,177.419 363.5,174C 356.658,170.652 353.324,165.152 353.5,157.5C 355.081,143.773 362.748,138.273 376.5,141C 383.484,143.78 387.484,148.946 388.5,156.5 Z"/></g>
<g><path style="opacity:1" fill="#9d7cd7" d="M 563.5,156.5 C 563.5,157.5 563.5,158.5 563.5,159.5C 558.657,174.584 548.991,178.751 534.5,172C 530.728,168.62 528.394,164.454 527.5,159.5C 527.5,158.5 527.5,157.5 527.5,156.5C 531.674,141.581 541.007,137.081 555.5,143C 560.305,146.264 562.972,150.764 563.5,156.5 Z"/></g>
<g><path style="opacity:1" fill="#9d7cd7" d="M 728.5,156.5 C 728.5,157.5 728.5,158.5 728.5,159.5C 723.657,174.584 713.991,178.751 699.5,172C 695.728,168.62 693.394,164.454 692.5,159.5C 692.5,158.5 692.5,157.5 692.5,156.5C 697.534,140.321 707.534,136.321 722.5,144.5C 725.828,147.806 727.828,151.806 728.5,156.5 Z"/></g>
<g><path style="opacity:0.998" fill="#9d7cd7" d="M 889.5,156.5 C 888.89,157.391 888.557,158.391 888.5,159.5C 887.515,169.152 882.181,174.485 872.5,175.5C 871.5,175.5 870.5,175.5 869.5,175.5C 860.5,173.833 855.167,168.5 853.5,159.5C 853.5,158.5 853.5,157.5 853.5,156.5C 854.801,145.865 860.801,140.532 871.5,140.5C 881.596,141.264 887.596,146.598 889.5,156.5 Z"/></g>
<g><path style="opacity:1" fill="#9d7cd7" d="M 972.5,151.5 C 972.5,155.5 972.5,159.5 972.5,163.5C 966.137,175.451 956.804,178.284 944.5,172C 940.735,168.636 938.401,164.469 937.5,159.5C 937.5,158.5 937.5,157.5 937.5,156.5C 941.405,141.236 950.738,136.736 965.5,143C 968.454,145.441 970.787,148.275 972.5,151.5 Z"/></g>
<g><path style="opacity:0.892" fill="#3e3c56" d="M 563.5,156.5 C 606.5,156.5 649.5,156.5 692.5,156.5C 692.5,157.5 692.5,158.5 692.5,159.5C 666.5,159.5 640.5,159.5 614.5,159.5C 614.333,174.837 614.5,190.17 615,205.5C 615.5,206 616,206.5 616.5,207C 626.494,207.5 636.494,207.666 646.5,207.5C 649.773,192.195 658.773,187.362 673.5,193C 678.667,196.505 681.334,201.338 681.5,207.5C 699.833,207.5 718.167,207.5 736.5,207.5C 736.5,208.5 736.5,209.5 736.5,210.5C 718.167,210.5 699.833,210.5 681.5,210.5C 679.889,220.111 674.223,225.111 664.5,225.5C 654.263,225.598 648.263,220.598 646.5,210.5C 635.828,210.667 625.161,210.5 614.5,210C 614,209.5 613.5,209 613,208.5C 611.53,192.262 611.03,175.929 611.5,159.5C 595.5,159.5 579.5,159.5 563.5,159.5C 563.5,158.5 563.5,157.5 563.5,156.5 Z"/></g>
<g><path style="opacity:0.802" fill="#3e3d56" d="M 889.5,156.5 C 905.5,156.5 921.5,156.5 937.5,156.5C 937.5,157.5 937.5,158.5 937.5,159.5C 921.167,159.5 904.833,159.5 888.5,159.5C 888.557,158.391 888.89,157.391 889.5,156.5 Z"/></g>
<g><path style="opacity:0.777" fill="#3e3c56" d="M 869.5,175.5 C 870.5,175.5 871.5,175.5 872.5,175.5C 872.667,186.172 872.5,196.839 872,207.5C 871.5,208.667 870.667,209.5 869.5,210C 836.835,210.5 804.168,210.667 771.5,210.5C 771.5,209.5 771.5,208.5 771.5,207.5C 803.835,207.667 836.168,207.5 868.5,207C 869.487,196.582 869.82,186.082 869.5,175.5 Z"/></g>
<g><path style="opacity:0.95" fill="#cbcbcb" d="M 771.5,207.5 C 771.5,208.5 771.5,209.5 771.5,210.5C 768.778,222.873 761.112,227.707 748.5,225C 741.428,222.757 737.428,217.924 736.5,210.5C 736.5,209.5 736.5,208.5 736.5,207.5C 737.951,197.05 743.951,191.383 754.5,190.5C 765.192,191.192 770.859,196.859 771.5,207.5 Z"/></g>
<g><path style="opacity:1" fill="#9e7ad9" d="M 294.5,341.5 C 292.453,338.314 289.453,336.981 285.5,337.5C 285.666,330.492 285.5,323.492 285,316.5C 284.654,314.152 283.487,312.319 281.5,311C 214.833,310.333 148.167,310.333 81.5,311C 79.6667,311.5 78.5,312.667 78,314.5C 77.5003,322.493 77.3336,330.493 77.5,338.5C 70.5361,337.447 63.5361,337.28 56.5,338C 54.9221,339.094 53.2554,339.928 51.5,340.5C 52.9934,313.219 60.16,287.219 73,262.5C 98.3486,249.241 123.849,236.074 149.5,223C 171.492,223.12 193.492,223.453 215.5,224C 229.669,232.586 244.003,240.919 258.5,249C 266.475,249.985 272.642,253.818 277,260.5C 279.551,264.935 281.551,269.601 283,274.5C 288,294.484 292.333,314.484 296,334.5C 296.667,336.5 296.667,338.5 296,340.5C 295.617,341.056 295.117,341.389 294.5,341.5 Z"/></g>
<g><path style="opacity:1" fill="#3f3d56" d="M 285.5,337.5 C 285.169,366.005 285.502,394.338 286.5,422.5C 286.5,424.167 286.5,425.833 286.5,427.5C 285.679,430.641 285.179,433.975 285,437.5C 284.215,439.286 283.049,440.786 281.5,442C 214.5,442.667 147.5,442.667 80.5,442C 78.9512,440.786 77.7845,439.286 77,437.5C 76.7932,431.086 76.2932,424.753 75.5,418.5C 76.1174,418.389 76.6174,418.056 77,417.5C 77.5,391.169 77.6666,364.835 77.5,338.5C 77.3336,330.493 77.5003,322.493 78,314.5C 78.5,312.667 79.6667,311.5 81.5,311C 148.167,310.333 214.833,310.333 281.5,311C 283.487,312.319 284.654,314.152 285,316.5C 285.5,323.492 285.666,330.492 285.5,337.5 Z"/></g>
<g><path style="opacity:0.999" fill="#d8b293" d="M 77.5,338.5 C 77.6666,364.835 77.5,391.169 77,417.5C 76.6174,418.056 76.1174,418.389 75.5,418.5C 70.0538,418.364 64.7204,419.031 59.5,420.5C 56.0828,393.909 53.4162,367.243 51.5,340.5C 53.2554,339.928 54.9221,339.094 56.5,338C 63.5361,337.28 70.5361,337.447 77.5,338.5 Z"/></g>
<g><path style="opacity:0.997" fill="#dbb496" d="M 285.5,337.5 C 289.453,336.981 292.453,338.314 294.5,341.5C 293.577,359.511 292.41,377.511 291,395.5C 290.549,404.822 289.049,413.822 286.5,422.5C 285.502,394.338 285.169,366.005 285.5,337.5 Z"/></g>
<g><path style="opacity:1" fill="#f7f6f7" d="M 178.5,370.5 C 186.828,371.069 188.495,374.569 183.5,381C 177,382.5 174.5,380 176,373.5C 177.045,372.627 177.878,371.627 178.5,370.5 Z"/></g>
<g><path style="opacity:1" fill="#50443d" d="M 75.5,418.5 C 76.2932,424.753 76.7932,431.086 77,437.5C 77.7845,439.286 78.9512,440.786 80.5,442C 147.5,442.667 214.5,442.667 281.5,442C 283.049,440.786 284.215,439.286 285,437.5C 285.179,433.975 285.679,430.641 286.5,427.5C 302.841,427.401 318.507,430.568 333.5,437C 336.965,439.463 340.131,442.296 343,445.5C 349.327,457.472 352.994,470.139 354,483.5C 350.661,496.003 343.161,505.003 331.5,510.5C 328.145,510.69 325.145,511.69 322.5,513.5C 316.861,514.728 311.195,515.894 305.5,517C 306.416,517.278 307.082,517.778 307.5,518.5C 302.452,517.006 297.452,517.173 292.5,519C 291.944,519.383 291.611,519.883 291.5,520.5C 290.833,520.5 290.167,520.5 289.5,520.5C 284.369,520.311 279.369,520.311 274.5,520.5C 269.824,527.647 268.491,535.313 270.5,543.5C 271.659,547.714 271.659,551.881 270.5,556C 258.986,556.415 247.652,555.082 236.5,552C 227.833,548.667 219.167,545.333 210.5,542C 204.853,540.892 199.186,539.892 193.5,539C 181.022,539.756 168.522,540.589 156,541.5C 144.835,541.556 134.002,539.723 123.5,536C 121.691,533.151 120.691,529.985 120.5,526.5C 121.234,525.292 121.567,523.959 121.5,522.5C 111.491,519.499 101.491,516.499 91.5,513.5C 90.9423,512.21 89.9423,511.377 88.5,511C 80.7913,508.93 73.1247,506.763 65.5,504.5C 51.8013,497.299 41.6347,486.632 35,472.5C 32.0899,463.99 32.7566,455.657 37,447.5C 39.0571,441.719 41.3904,436.053 44,430.5C 48.118,425.525 53.2847,422.192 59.5,420.5C 64.7204,419.031 70.0538,418.364 75.5,418.5 Z"/></g>
<g><path style="opacity:0.713" fill="#dbd0ea" d="M 564.5,471.5 C 563.167,471.5 561.833,471.5 560.5,471.5C 560.5,468.5 560.5,465.5 560.5,462.5C 546.167,462.5 531.833,462.5 517.5,462.5C 517.5,477.833 517.5,493.167 517.5,508.5C 516.504,493.009 516.17,477.342 516.5,461.5C 531.5,461.5 546.5,461.5 561.5,461.5C 561.5,464.5 561.5,467.5 561.5,470.5C 562.791,470.263 563.791,470.596 564.5,471.5 Z"/></g>
<g><path style="opacity:1" fill="#bf96fe" d="M 564.5,471.5 C 569.97,472.984 572.97,476.65 573.5,482.5C 572.97,488.35 569.97,492.016 564.5,493.5C 563.167,493.5 561.833,493.5 560.5,493.5C 560.5,498.5 560.5,503.5 560.5,508.5C 559.751,509.531 559.085,510.698 558.5,512C 545.5,512.667 532.5,512.667 519.5,512C 518.915,510.698 518.249,509.531 517.5,508.5C 517.5,493.167 517.5,477.833 517.5,462.5C 531.833,462.5 546.167,462.5 560.5,462.5C 560.5,465.5 560.5,468.5 560.5,471.5C 561.833,471.5 563.167,471.5 564.5,471.5 Z M 564.5,476.5 C 568.5,480.5 568.5,484.5 564.5,488.5C 563.5,488.5 562.5,488.5 561.5,488.5C 561.5,484.5 561.5,480.5 561.5,476.5C 562.5,476.5 563.5,476.5 564.5,476.5 Z"/></g>
<g><path style="opacity:0.765" fill="#d8ccec" d="M 564.5,476.5 C 563.5,476.5 562.5,476.5 561.5,476.5C 561.5,480.5 561.5,484.5 561.5,488.5C 562.5,488.5 563.5,488.5 564.5,488.5C 563.432,489.434 562.099,489.768 560.5,489.5C 560.5,484.833 560.5,480.167 560.5,475.5C 562.099,475.232 563.432,475.566 564.5,476.5 Z"/></g>
<g><path style="opacity:0.765" fill="#d8cbed" d="M 564.5,493.5 C 563.791,494.404 562.791,494.737 561.5,494.5C 561.819,499.363 561.486,504.03 560.5,508.5C 560.5,503.5 560.5,498.5 560.5,493.5C 561.833,493.5 563.167,493.5 564.5,493.5 Z"/></g>
<g><path style="opacity:1" fill="#f8f8f8" d="M 65.5,504.5 C 73.1247,506.763 80.7913,508.93 88.5,511C 89.9423,511.377 90.9423,512.21 91.5,513.5C 91.0074,515.806 90.6741,518.139 90.5,520.5C 89.3756,542.3 78.0423,552.3 56.5,550.5C 58.5826,539.086 60.9159,527.753 63.5,516.5C 64.4614,514.735 64.7947,512.735 64.5,510.5C 64.8333,508.5 65.1667,506.5 65.5,504.5 Z"/></g>
<g><path style="opacity:0.659" fill="#c9c9c9" d="M -0.5,510.5 C 21.1667,510.5 42.8333,510.5 64.5,510.5C 64.7947,512.735 64.4614,514.735 63.5,516.5C 63.5,515.5 63.5,514.5 63.5,513.5C 42.1667,513.5 20.8333,513.5 -0.5,513.5C -0.5,512.5 -0.5,511.5 -0.5,510.5 Z"/></g>
<g><path style="opacity:0.641" fill="#cacaca" d="M 517.5,508.5 C 518.249,509.531 518.915,510.698 519.5,512C 532.5,512.667 545.5,512.667 558.5,512C 559.085,510.698 559.751,509.531 560.5,508.5C 595.151,510.493 630.151,511.16 665.5,510.5C 665.5,511.5 665.5,512.5 665.5,513.5C 551.167,513.5 436.833,513.5 322.5,513.5C 325.145,511.69 328.145,510.69 331.5,510.5C 393.842,511.163 455.842,510.496 517.5,508.5 Z"/></g>
<g><path style="opacity:1" fill="#ceaa8e" d="M 91.5,513.5 C 101.491,516.499 111.491,519.499 121.5,522.5C 121.567,523.959 121.234,525.292 120.5,526.5C 110.893,523.298 101.227,520.298 91.5,517.5C 91.7373,518.791 91.404,519.791 90.5,520.5C 90.6741,518.139 91.0074,515.806 91.5,513.5 Z"/></g>
<g><path style="opacity:1" fill="#f8f8f8" d="M 307.5,518.5 C 311.519,518.646 315.519,518.979 319.5,519.5C 316.961,541.936 313.961,564.269 310.5,586.5C 308.833,586.5 307.167,586.5 305.5,586.5C 293.63,581.775 287.296,572.942 286.5,560C 287.028,554.474 287.694,548.974 288.5,543.5C 290.286,536.322 291.286,528.989 291.5,521.5C 291.5,521.167 291.5,520.833 291.5,520.5C 291.611,519.883 291.944,519.383 292.5,519C 297.452,517.173 302.452,517.006 307.5,518.5 Z"/></g>
<g><path style="opacity:1" fill="#d8b392" d="M 289.5,520.5 C 289.842,521.338 290.508,521.672 291.5,521.5C 291.286,528.989 290.286,536.322 288.5,543.5C 282.5,543.5 276.5,543.5 270.5,543.5C 268.491,535.313 269.824,527.647 274.5,520.5C 279.369,520.311 284.369,520.311 289.5,520.5 Z"/></g>
</svg>
