<?xml version="1.0" standalone="no"?>
<!DOCTYPE svg PUBLIC "-//W3C//DTD SVG 20010904//EN"
 "http://www.w3.org/TR/2001/REC-SVG-20010904/DTD/svg10.dtd">
<svg version="1.0" xmlns="http://www.w3.org/2000/svg"
 width="512.000000pt" height="512.000000pt" viewBox="0 0 512.000000 512.000000"
 preserveAspectRatio="xMidYMid meet">

<g transform="translate(0.000000,512.000000) scale(0.100000,-0.100000)"
fill="#000000" stroke="none">
<path d="M0 2560 l0 -2560 1384 0 c1087 0 1386 3 1390 13 5 9 7 9 12 0 4 -10
62 -13 238 -13 l233 0 -1 23 c-1 16 5 23 22 25 18 3 22 -1 22 -22 l0 -26 910
0 910 0 0 2253 0 2253 -38 37 -39 38 -34 -40 c-19 -21 -44 -56 -57 -76 l-23
-38 23 -26 c13 -14 49 -54 80 -88 32 -34 58 -69 58 -77 0 -9 -12 -21 -26 -26
-23 -9 -32 -5 -72 29 -26 21 -69 67 -97 100 -43 53 -54 61 -75 55 -14 -3 -27
-7 -29 -9 -7 -8 44 -73 116 -145 72 -74 73 -76 62 -108 -9 -26 -16 -32 -39
-32 -24 0 -40 15 -108 103 -44 56 -100 121 -126 145 -25 24 -46 50 -46 59 0
24 119 200 184 273 32 36 65 74 72 86 11 16 36 25 114 39 l100 18 0 149 0 148
-774 0 -773 0 -6 -72 c-3 -40 -13 -90 -22 -112 -21 -50 -100 -133 -145 -153
-43 -20 -187 -53 -194 -45 -13 12 -4 67 22 144 32 98 94 172 174 212 l52 26
-717 0 c-394 0 -717 -3 -717 -7 0 -3 7 -15 16 -24 16 -17 15 -20 -16 -49 l-33
-31 -22 21 c-12 11 -27 20 -33 20 -17 0 -15 25 3 40 8 7 15 16 15 21 0 5 -63
9 -140 9 l-139 0 -67 -36 c-42 -24 -79 -54 -103 -84 -33 -43 -41 -48 -88 -53
-71 -8 -134 -37 -191 -91 l-49 -46 -40 38 c-21 20 -96 90 -165 155 l-126 117
-421 0 -421 0 0 -2560z m350 2520 c0 -5 -4 -10 -10 -10 -5 0 -10 5 -10 10 0 6
5 10 10 10 6 0 10 -4 10 -10z m2770 -10 c0 -5 -4 -10 -10 -10 -5 0 -10 5 -10
10 0 6 5 10 10 10 6 0 10 -4 10 -10z m680 -70 c0 -5 -5 -10 -11 -10 -5 0 -7 5
-4 10 3 6 8 10 11 10 2 0 4 -4 4 -10z m450 -84 c0 -8 -4 -17 -8 -20 -13 -8
-35 11 -28 23 10 16 36 14 36 -3z m-3596 -11 c6 -17 -2 -45 -14 -45 -15 0 -30
28 -24 44 8 20 30 21 38 1z m1886 -35 c0 -13 -7 -20 -18 -20 -24 0 -32 8 -25
26 8 22 43 17 43 -6z m450 -154 c0 -3 -4 -8 -10 -11 -5 -3 -10 -1 -10 4 0 6 5
11 10 11 6 0 10 -2 10 -4z m-2110 -26 c0 -5 -2 -10 -4 -10 -3 0 -8 5 -11 10
-3 6 -1 10 4 10 6 0 11 -4 11 -10z m730 -60 c0 -5 -5 -10 -11 -10 -5 0 -7 5
-4 10 3 6 8 10 11 10 2 0 4 -4 4 -10z m1940 -20 c0 -11 -6 -20 -14 -20 -18 0
-29 16 -21 30 11 18 35 11 35 -10z m-1712 -61 c12 -18 11 -24 -1 -36 -11 -12
-19 -12 -36 -4 -18 10 -19 15 -9 36 14 31 29 32 46 4z m1452 -9 c0 -11 -6 -20
-14 -20 -18 0 -29 16 -21 30 11 18 35 11 35 -10z m-3041 -14 c9 -10 8 -16 -4
-26 -19 -16 -41 1 -32 24 8 20 21 20 36 2z m2441 -50 c-11 -10 -22 -11 -38 -5
-22 8 -22 9 -6 34 l17 26 21 -20 c18 -18 19 -23 6 -35z m55 -56 c3 -5 1 -10
-4 -10 -6 0 -11 5 -11 10 0 6 2 10 4 10 3 0 8 -4 11 -10z m-2185 -50 c0 -5 -4
-10 -10 -10 -5 0 -10 5 -10 10 0 6 5 10 10 10 6 0 10 -4 10 -10z m708 -23 c2
-12 -3 -17 -17 -17 -15 0 -21 6 -21 21 0 25 33 22 38 -4z m-914 -13 c10 -27 7
-34 -19 -34 -18 0 -25 5 -25 18 0 34 33 45 44 16z m1884 -7 c2 -12 -3 -17 -17
-17 -12 0 -21 6 -21 13 0 31 32 34 38 4z m637 -17 c3 -5 1 -10 -4 -10 -6 0
-11 5 -11 10 0 6 2 10 4 10 3 0 8 -4 11 -10z m-295 -30 c0 -5 -4 -10 -10 -10
-5 0 -10 5 -10 10 0 6 5 10 10 10 6 0 10 -4 10 -10z m-260 -144 c0 -3 -4 -8
-10 -11 -5 -3 -10 -1 -10 4 0 6 5 11 10 11 6 0 10 -2 10 -4z m316 -33 c18 -24
17 -52 -1 -59 -24 -10 -42 12 -37 46 5 34 18 38 38 13z m-1906 -13 c0 -5 -4
-10 -10 -10 -5 0 -10 5 -10 10 0 6 5 10 10 10 6 0 10 -4 10 -10z m3650 -5 c0
-8 -9 -15 -20 -15 -11 0 -20 7 -20 15 0 8 9 15 20 15 11 0 20 -7 20 -15z
m-3290 -26 c0 -12 -7 -19 -20 -19 -22 0 -29 35 -7 43 18 6 27 -2 27 -24z
m2300 17 c0 -3 -4 -8 -10 -11 -5 -3 -10 -1 -10 4 0 6 5 11 10 11 6 0 10 -2 10
-4z m450 -6 c0 -5 -4 -10 -10 -10 -5 0 -10 5 -10 10 0 6 5 10 10 10 6 0 10 -4
10 -10z m-1955 -10 c3 -5 1 -10 -4 -10 -6 0 -11 5 -11 10 0 6 2 10 4 10 3 0 8
-4 11 -10z m2285 -20 c0 -5 -4 -10 -10 -10 -5 0 -10 5 -10 10 0 6 5 10 10 10
6 0 10 -4 10 -10z m-4035 -69 l36 -55 -26 -25 c-21 -22 -28 -24 -43 -13 -9 6
-27 16 -39 22 -28 12 -28 18 -3 50 11 14 20 34 20 46 0 19 10 38 16 32 1 -2
19 -27 39 -57z m1345 -31 c0 -5 -4 -10 -10 -10 -5 0 -10 5 -10 10 0 6 5 10 10
10 6 0 10 -4 10 -10z m-590 -50 c0 -5 -5 -10 -11 -10 -5 0 -7 5 -4 10 3 6 8
10 11 10 2 0 4 -4 4 -10z m3980 6 c0 -3 -4 -8 -10 -11 -5 -3 -10 -1 -10 4 0 6
5 11 10 11 6 0 10 -2 10 -4z m-2030 -10 c0 -3 -4 -8 -10 -11 -5 -3 -10 -1 -10
4 0 6 5 11 10 11 6 0 10 -2 10 -4z m-2219 -106 c12 -7 19 -21 19 -40 l0 -30
83 -1 c45 0 106 -4 135 -8 40 -6 55 -4 59 5 7 19 34 26 49 13 21 -17 17 -56
-16 -144 l-30 -79 26 -43 c13 -23 36 -50 50 -60 48 -33 75 -67 117 -148 23
-44 63 -108 90 -142 l47 -63 -36 -72 c-19 -40 -48 -88 -64 -106 l-28 -33 -171
7 -172 7 -69 96 c-37 53 -87 128 -109 168 -23 40 -63 106 -90 147 -45 69 -48
79 -44 123 14 153 67 365 100 398 17 18 28 19 54 5z m769 -50 c0 -5 -5 -10
-11 -10 -5 0 -7 5 -4 10 3 6 8 10 11 10 2 0 4 -4 4 -10z m508 -79 c-15 -25
-17 -25 -42 -6 -19 14 -19 16 -2 52 l18 37 19 -31 c17 -27 18 -35 7 -52z
m2287 48 c0 -7 -8 -15 -17 -17 -18 -3 -25 18 -11 32 10 10 28 1 28 -15z
m-1195 1 c0 -5 -4 -10 -10 -10 -5 0 -10 5 -10 10 0 6 5 10 10 10 6 0 10 -4 10
-10z m-660 -80 c0 -5 -2 -10 -4 -10 -3 0 -8 5 -11 10 -3 6 -1 10 4 10 6 0 11
-4 11 -10z m1400 -3 c0 -7 11 -28 24 -46 l24 -32 -25 -38 -24 -38 -35 35 -35
35 21 19 c11 10 20 29 20 42 0 12 3 26 7 29 11 11 23 8 23 -6z m333 -103 c9
-10 -4 -34 -18 -34 -17 0 -28 17 -20 30 7 11 28 13 38 4z m-613 -54 c0 -5 -4
-10 -10 -10 -5 0 -10 5 -10 10 0 6 5 10 10 10 6 0 10 -4 10 -10z m1305 -30 c3
-5 1 -10 -4 -10 -6 0 -11 5 -11 10 0 6 2 10 4 10 3 0 8 -4 11 -10z m-3467
-103 c2 -15 14 -35 28 -46 28 -22 31 -36 9 -45 -8 -3 -20 -17 -27 -31 -14 -32
-34 -32 -42 -1 -3 14 -15 28 -26 31 -27 8 -25 19 5 39 19 12 25 25 25 52 0 42
23 43 28 1z m1642 -37 c0 -5 -4 -10 -10 -10 -5 0 -10 5 -10 10 0 6 5 10 10 10
6 0 10 -4 10 -10z m224 -55 c21 -16 16 -65 -7 -65 -18 0 -36 35 -30 59 6 25
11 25 37 6z m-2868 -50 c15 -31 -6 -55 -30 -35 -12 9 -13 17 -4 36 14 30 20
30 34 -1z m2069 -5 c3 -5 1 -10 -4 -10 -6 0 -11 5 -11 10 0 6 2 10 4 10 3 0 8
-4 11 -10z m665 -44 c0 -3 -4 -8 -10 -11 -5 -3 -10 -1 -10 4 0 6 5 11 10 11 6
0 10 -2 10 -4z m1560 -6 c0 -5 -2 -10 -4 -10 -3 0 -8 5 -11 10 -3 6 -1 10 4
10 6 0 11 -4 11 -10z m-830 -120 c0 -5 -2 -10 -4 -10 -3 0 -8 5 -11 10 -3 6
-1 10 4 10 6 0 11 -4 11 -10z m-997 -21 c31 -17 37 -28 37 -73 0 -58 -63 -114
-204 -181 -183 -87 -419 -134 -525 -105 -86 23 -115 90 -64 151 31 36 130 85
194 95 31 5 51 16 72 41 17 19 43 41 58 49 35 18 116 18 149 1 22 -12 34 -11
90 9 71 25 159 30 193 13z m-2623 -123 c-1 -27 -17 -38 -39 -27 -25 14 -25 15
-4 47 16 25 17 25 30 8 7 -10 13 -23 13 -28z m4579 -20 c17 -35 31 -67 31 -72
-1 -5 -12 -22 -25 -39 l-24 -29 -33 29 c-18 17 -35 31 -37 32 -2 2 4 12 14 23
10 11 20 41 23 70 2 27 8 50 12 50 4 0 21 -29 39 -64z m-4389 0 c0 -7 11 -23
25 -36 31 -29 31 -31 -2 -68 l-27 -31 -21 23 c-12 13 -28 25 -36 28 -11 4 -9
10 9 30 12 13 22 33 22 44 0 12 3 24 6 27 9 9 24 -2 24 -17z m2940 -32 c0 -8
-9 -14 -20 -14 -19 0 -27 19 -14 33 10 9 34 -4 34 -19z m-1660 6 c0 -5 -4 -10
-10 -10 -5 0 -10 5 -10 10 0 6 5 10 10 10 6 0 10 -4 10 -10z m-784 -169 c-10
-16 -36 -13 -43 5 -8 22 18 37 36 20 7 -8 10 -19 7 -25z m3705 -13 c30 -3 37
-9 59 -55 19 -39 31 -52 50 -55 19 -2 28 -12 36 -38 18 -56 49 -52 122 13 33
29 79 61 102 70 41 16 41 16 50 -8 5 -13 27 -56 50 -96 22 -39 40 -77 40 -85
0 -11 -22 -14 -107 -14 -106 0 -107 0 -139 31 -28 27 -38 31 -66 25 l-34 -6
15 -113 c16 -128 8 -166 -39 -177 -31 -8 -32 -48 -1 -79 37 -37 20 -71 -35
-71 -36 0 -57 20 -48 44 3 9 3 32 0 51 l-7 35 -74 -7 -73 -6 -11 39 c-5 21
-18 81 -27 132 l-18 92 -35 -6 c-58 -9 -61 -12 -61 -47 0 -45 -28 -69 -125
-106 -44 -17 -81 -31 -82 -31 -1 0 -16 44 -33 97 -21 68 -27 99 -19 104 6 4
61 12 122 19 101 11 112 11 123 -5 10 -13 21 -15 46 -10 66 13 68 15 68 50 0
18 7 40 15 49 13 12 13 22 3 60 -10 39 -10 48 5 64 9 10 17 32 17 49 0 42 9
46 45 19 17 -14 47 -26 66 -28z m-3167 -17 c15 -16 15 -22 4 -40 -15 -25 -21
-26 -37 -7 -12 14 -5 66 9 66 4 0 15 -9 24 -19z m3401 -1 c3 -5 1 -10 -4 -10
-6 0 -11 5 -11 10 0 6 2 10 4 10 3 0 8 -4 11 -10z m-645 -60 c0 -5 -5 -10 -11
-10 -5 0 -7 5 -4 10 3 6 8 10 11 10 2 0 4 -4 4 -10z m-3750 -10 c0 -5 -2 -10
-4 -10 -3 0 -8 5 -11 10 -3 6 -1 10 4 10 6 0 11 -4 11 -10z m1669 -53 c8 -10
7 -17 -1 -25 -16 -16 -25 -15 -32 4 -12 30 12 45 33 21z m951 -137 c0 -11 -6
-20 -14 -20 -18 0 -29 16 -21 30 11 18 35 11 35 -10z m210 -30 c0 -5 -4 -10
-10 -10 -5 0 -10 5 -10 10 0 6 5 10 10 10 6 0 10 -4 10 -10z m-1620 -30 c0 -5
-4 -10 -10 -10 -5 0 -10 5 -10 10 0 6 5 10 10 10 6 0 10 -4 10 -10z m2095 -50
c0 -8 -8 -16 -17 -18 -13 -2 -18 3 -18 18 0 15 5 20 18 18 9 -2 17 -10 17 -18z
m-2830 -140 c3 -5 1 -10 -4 -10 -6 0 -11 5 -11 10 0 6 2 10 4 10 3 0 8 -4 11
-10z m1603 -66 c-10 -10 -23 -14 -37 -9 -24 7 -25 13 -11 51 l11 28 27 -27
c24 -25 25 -28 10 -43z m-1033 6 c3 -5 1 -10 -4 -10 -6 0 -11 5 -11 10 0 6 2
10 4 10 3 0 8 -4 11 -10z m1801 -11 c13 -15 16 -24 8 -36 -14 -23 -27 -26 -48
-10 -15 11 -16 17 -5 40 15 32 20 33 45 6z m411 -9 c12 -18 8 -50 -5 -50 -3 0
-14 7 -23 16 -14 13 -16 21 -8 35 12 24 21 24 36 -1z m-3217 -12 c12 -14 20
-35 20 -58 0 -31 5 -40 38 -61 20 -13 41 -33 46 -44 5 -11 27 -28 48 -37 34
-15 39 -21 36 -45 -2 -23 -8 -29 -36 -31 -23 -2 -36 -11 -47 -31 -15 -29 -79
-91 -95 -91 -4 0 -11 -13 -15 -29 -8 -36 -47 -74 -72 -69 -13 2 -19 14 -21 43
-2 32 -9 43 -32 57 -34 19 -70 73 -70 105 0 17 -7 22 -31 25 -41 4 -60 31 -37
54 9 9 27 17 41 17 18 0 29 8 40 33 10 20 32 41 55 53 39 20 52 37 52 70 0 23
28 61 45 61 8 0 23 -10 35 -22z m137 6 c3 -8 1 -20 -4 -25 -14 -14 -43 0 -43
22 0 24 38 26 47 3z m1459 -25 c9 -16 -18 -30 -33 -17 -7 6 -10 14 -7 19 7 13
31 11 40 -2z m2304 -13 c0 -24 -23 -41 -41 -30 -10 6 -12 38 -2 47 3 4 15 7
25 7 12 0 18 -7 18 -24z m-3300 -16 c0 -5 -2 -10 -4 -10 -3 0 -8 5 -11 10 -3
6 -1 10 4 10 6 0 11 -4 11 -10z m-870 -60 c0 -5 -4 -10 -10 -10 -5 0 -10 5
-10 10 0 6 5 10 10 10 6 0 10 -4 10 -10z m2260 -60 c0 -5 -4 -10 -10 -10 -5 0
-10 5 -10 10 0 6 5 10 10 10 6 0 10 -4 10 -10z m2300 -85 c19 -23 8 -50 -20
-47 -33 3 -35 8 -20 37 15 29 23 31 40 10z m-3545 -19 c16 -12 17 -16 6 -30
-26 -31 -58 -14 -46 24 8 24 15 25 40 6z m1743 -74 c17 -37 32 -72 32 -77 0
-13 -52 -65 -66 -65 -6 0 -24 16 -38 35 l-27 35 21 28 c12 16 24 48 27 70 3
23 8 42 12 42 3 0 21 -31 39 -68z m1072 -116 c0 -3 -4 -8 -10 -11 -5 -3 -10
-1 -10 4 0 6 5 11 10 11 6 0 10 -2 10 -4z m-2225 -93 c55 -18 135 -42 178 -54
l77 -22 0 -56 c0 -47 -20 -252 -36 -369 -4 -24 -12 -36 -31 -43 -22 -8 -30 -6
-54 17 -27 26 -27 27 -26 150 2 120 1 124 -18 118 -11 -4 -24 -10 -29 -15 -14
-13 -24 -101 -25 -211 -1 -87 -3 -99 -23 -118 -27 -25 -50 -25 -72 -1 -16 18
-17 35 -11 174 6 135 5 155 -9 160 -14 5 -16 -4 -16 -63 l0 -70 -35 -17 c-33
-16 -36 -15 -54 1 -17 15 -21 34 -23 109 l-3 90 -42 18 -43 18 0 -103 c0 -143
-5 -164 -47 -184 -32 -15 -34 -15 -55 6 -22 21 -22 29 -20 184 2 90 8 179 14
199 11 38 29 48 120 64 20 4 65 18 100 31 34 13 68 22 73 21 6 -1 55 -17 110
-34z m345 -19 c11 -12 10 -18 -3 -31 -21 -21 -47 -9 -47 22 0 29 29 35 50 9z
m-1482 -71 c5 -17 -26 -29 -40 -15 -6 6 -7 15 -3 22 9 14 37 9 43 -7z m382
-23 c0 -5 -4 -10 -10 -10 -5 0 -10 5 -10 10 0 6 5 10 10 10 6 0 10 -4 10 -10z
m2510 -15 c13 -16 6 -35 -15 -35 -18 0 -28 17 -21 35 7 19 20 19 36 0z m1170
5 c0 -5 -4 -10 -10 -10 -5 0 -10 5 -10 10 0 6 5 10 10 10 6 0 10 -4 10 -10z
m-4415 -100 c3 -5 1 -10 -4 -10 -6 0 -11 5 -11 10 0 6 2 10 4 10 3 0 8 -4 11
-10z m3307 -46 c87 -34 137 -108 138 -202 0 -93 -34 -143 -124 -183 -83 -36
-198 -17 -253 43 -60 64 -73 176 -28 252 31 53 55 72 117 91 59 19 100 18 150
-1z m-2412 -54 c0 -5 -4 -10 -10 -10 -5 0 -10 5 -10 10 0 6 5 10 10 10 6 0 10
-4 10 -10z m-1030 -10 c0 -5 -5 -10 -11 -10 -5 0 -7 5 -4 10 3 6 8 10 11 10 2
0 4 -4 4 -10z m3748 -47 c5 -17 -26 -29 -40 -15 -6 6 -7 15 -3 22 9 14 37 9
43 -7z m-3188 -113 c0 -5 -5 -10 -11 -10 -5 0 -7 5 -4 10 3 6 8 10 11 10 2 0
4 -4 4 -10z m3888 -142 c20 -13 59 -34 87 -48 l50 -25 48 -144 c65 -196 68
-220 27 -301 -41 -82 -57 -100 -90 -100 -36 0 -140 37 -168 60 -38 32 -70 119
-97 268 l-27 143 24 32 c73 99 103 137 106 137 3 0 21 -10 40 -22z m-2458 2
c0 -5 -4 -10 -9 -10 -6 0 -13 5 -16 10 -3 6 1 10 9 10 9 0 16 -4 16 -10z m700
-20 c0 -5 -4 -10 -10 -10 -5 0 -10 5 -10 10 0 6 5 10 10 10 6 0 10 -4 10 -10z
m300 -40 c0 -5 -4 -10 -10 -10 -5 0 -10 5 -10 10 0 6 5 10 10 10 6 0 10 -4 10
-10z m828 -50 l32 -39 -25 -25 c-14 -14 -25 -30 -25 -36 0 -5 -4 -10 -10 -10
-5 0 -10 6 -10 14 0 8 -12 24 -27 36 l-27 21 23 15 c13 10 20 22 17 31 -6 16
0 33 12 33 4 0 22 -18 40 -40z m-365 -114 c22 -17 22 -28 -3 -43 -20 -13 -50
-8 -50 9 0 14 20 48 28 48 4 0 15 -7 25 -14z m-2038 -16 c3 -5 1 -10 -4 -10
-6 0 -11 5 -11 10 0 6 2 10 4 10 3 0 8 -4 11 -10z m-1075 -10 c0 -5 -2 -10 -4
-10 -3 0 -8 5 -11 10 -3 6 -1 10 4 10 6 0 11 -4 11 -10z m940 -30 c0 -5 -5
-10 -11 -10 -5 0 -7 5 -4 10 3 6 8 10 11 10 2 0 4 -4 4 -10z m-264 -24 c3 -8
-1 -27 -9 -43 -15 -27 -14 -29 19 -59 59 -55 40 -104 -41 -104 -25 0 -37 -5
-41 -17 -18 -57 -30 -76 -57 -95 -38 -27 -60 -15 -68 37 -6 38 -21 55 -51 55
-9 0 -24 7 -32 16 -14 14 -14 18 -1 44 8 16 23 35 32 42 12 8 19 28 20 56 0
23 4 49 7 57 7 19 40 19 82 -1 32 -15 35 -15 61 5 32 24 71 27 79 7z m3724
-86 c0 -5 -2 -10 -4 -10 -3 0 -8 5 -11 10 -3 6 -1 10 4 10 6 0 11 -4 11 -10z
m-2090 -70 c0 -5 -4 -10 -10 -10 -5 0 -10 5 -10 10 0 6 5 10 10 10 6 0 10 -4
10 -10z m-2381 -76 c-9 -11 -15 -12 -25 -3 -11 9 -12 15 -3 25 9 11 15 12 25
3 11 -9 12 -15 3 -25z m3521 22 c0 -3 -4 -8 -10 -11 -5 -3 -10 -1 -10 4 0 6 5
11 10 11 6 0 10 -2 10 -4z m-1520 -61 c13 -16 10 -47 -5 -52 -21 -6 -36 14
-29 40 7 30 16 34 34 12z m-1757 -57 c8 -12 7 -21 -2 -32 -12 -14 -15 -14 -37
0 -19 13 -22 20 -13 36 12 22 37 21 52 -4z m755 -76 c3 -16 -2 -22 -17 -22
-24 0 -35 15 -27 36 9 23 40 13 44 -14z m3057 8 c3 -5 1 -10 -4 -10 -6 0 -11
5 -11 10 0 6 2 10 4 10 3 0 8 -4 11 -10z m390 0 c3 -5 1 -10 -4 -10 -6 0 -11
5 -11 10 0 6 2 10 4 10 3 0 8 -4 11 -10z m-3895 -10 c0 -5 -2 -10 -4 -10 -3 0
-8 5 -11 10 -3 6 -1 10 4 10 6 0 11 -4 11 -10z m-855 -80 c3 -5 1 -10 -4 -10
-6 0 -11 5 -11 10 0 6 2 10 4 10 3 0 8 -4 11 -10z"/>
<path d="M582 3757 c-20 -23 -52 -132 -73 -245 -22 -124 -24 -180 -4 -205 13
-18 14 -18 23 0 5 10 15 50 21 88 7 39 20 108 31 155 41 190 41 193 27 207
-12 12 -16 12 -25 0z"/>
<path d="M925 3677 c-14 -22 -55 -132 -55 -149 0 -4 8 -8 18 -8 13 0 25 20 45
78 15 42 27 83 27 90 0 19 -18 14 -35 -11z"/>
<path d="M621 3628 c-7 -35 -14 -75 -17 -90 -6 -24 -4 -26 17 -21 13 4 34 13
46 21 29 18 135 28 159 14 17 -9 21 -4 41 51 12 34 20 63 17 66 -7 7 -129 20
-195 20 l-57 1 -11 -62z"/>
<path d="M720 3532 c-41 -8 -48 -28 -25 -71 18 -36 46 -45 121 -39 67 6 82 18
66 52 -22 49 -87 72 -162 58z"/>
<path d="M623 3493 c-31 -6 -28 -18 15 -83 36 -53 39 -55 87 -58 56 -4 245 17
245 27 0 3 -14 22 -30 41 -22 26 -30 30 -30 17 0 -21 -26 -32 -97 -41 -72 -9
-116 10 -143 63 -11 23 -21 40 -23 40 -1 -1 -12 -4 -24 -6z"/>
<path d="M572 3382 c-7 -37 -18 -81 -24 -98 -9 -25 -8 -35 7 -57 9 -15 20 -27
24 -27 4 0 22 33 40 74 l33 74 -34 50 -34 50 -12 -66z"/>
<path d="M905 3339 c-22 -4 -79 -8 -127 -8 -49 -1 -88 -3 -88 -6 0 -13 204
-257 223 -268 15 -8 63 -11 159 -9 l137 3 -43 62 c-24 34 -58 91 -76 127 -56
112 -75 122 -185 99z"/>
<path d="M631 3244 c-17 -36 -31 -72 -31 -78 0 -16 74 -137 140 -229 l55 -77
162 0 162 0 24 33 c14 17 37 56 52 86 l27 54 -154 -7 c-181 -9 -152 -24 -301
162 -54 67 -100 122 -102 122 -2 0 -17 -30 -34 -66z"/>
<path d="M2620 2971 l-25 -9 27 -1 c26 -1 58 -24 58 -41 0 -26 -62 -73 -162
-123 -131 -66 -199 -86 -320 -94 -83 -6 -87 -5 -112 20 -25 25 -26 28 -12 55
8 16 29 35 46 42 17 7 29 14 27 16 -7 7 -81 -27 -113 -52 -45 -33 -49 -70 -14
-106 28 -27 32 -28 133 -28 88 0 123 5 232 35 131 36 271 101 340 158 41 33
57 90 32 114 -18 18 -100 26 -137 14z"/>
<path d="M2334 2946 c-49 -22 -74 -61 -74 -119 l0 -50 48 7 c56 7 162 41 187
60 15 11 16 17 5 50 -19 60 -94 83 -166 52z"/>
<path d="M2569 2921 c9 -6 11 -18 7 -35 -14 -55 -184 -124 -329 -134 -89 -6
-108 5 -81 45 19 29 6 29 -37 0 -19 -13 -34 -31 -34 -42 0 -61 231 -29 401 55
99 49 154 88 154 110 0 5 -21 10 -47 10 -32 0 -43 -3 -34 -9z"/>
<path d="M2530 2888 c0 -17 2 -18 15 -8 8 7 15 14 15 15 0 2 -7 5 -15 9 -10 4
-15 -1 -15 -16z"/>
<path d="M2200 2802 c-28 -23 -23 -35 12 -30 20 2 23 7 18 27 l-5 23 -25 -20z"/>
<path d="M4430 2635 c0 -16 16 -20 24 -6 3 5 -1 11 -9 15 -9 3 -15 0 -15 -9z"/>
<path d="M4438 2593 c-21 -8 -38 -22 -38 -30 0 -10 5 -13 18 -8 18 8 59 19
105 29 15 4 27 11 27 16 0 15 -70 11 -112 -7z"/>
<path d="M4467 2548 c-39 -11 -57 -32 -40 -49 6 -6 21 -6 39 0 16 5 48 14 71
20 31 8 41 16 37 26 -7 17 -49 18 -107 3z"/>
<path d="M4906 2551 c-7 -10 67 -146 85 -157 17 -10 8 11 -35 89 -24 44 -47
74 -50 68z"/>
<path d="M4807 2490 l-42 -40 33 -30 c28 -26 40 -30 92 -30 33 0 60 4 60 9 0
20 -73 131 -87 131 -7 0 -33 -18 -56 -40z"/>
<path d="M4594 2493 c2 -10 7 -28 11 -39 4 -16 11 -20 25 -17 22 6 25 24 10
54 -14 25 -53 26 -46 2z"/>
<path d="M4542 2492 c-20 -13 -4 -72 19 -72 20 0 24 17 13 58 -7 24 -12 26
-32 14z"/>
<path d="M4458 2474 c-3 -3 -3 -17 1 -32 5 -20 15 -28 36 -30 25 -3 27 -1 22
20 -4 13 -7 29 -7 36 0 12 -41 17 -52 6z"/>
<path d="M4397 2452 c-3 -4 -3 -19 0 -33 4 -20 9 -25 24 -22 20 5 24 20 13 47
-6 17 -29 22 -37 8z"/>
<path d="M4633 2412 c-15 -9 -5 -62 14 -69 21 -8 25 1 18 41 -7 37 -12 41 -32
28z"/>
<path d="M4557 2393 c-3 -5 -2 -23 0 -41 5 -28 8 -32 27 -26 29 9 29 9 21 43
-6 29 -36 44 -48 24z"/>
<path d="M4493 2382 c-6 -4 -9 -19 -6 -35 4 -21 11 -27 30 -27 19 0 24 4 19
16 -3 9 -6 24 -6 35 0 19 -16 24 -37 11z"/>
<path d="M4418 2373 c-13 -3 -18 -15 -18 -43 0 -39 0 -39 31 -30 41 12 43 14
32 46 -10 30 -18 34 -45 27z"/>
<path d="M4109 2363 c-14 -3 -13 -10 8 -50 12 -26 23 -55 23 -65 0 -23 11 -23
60 2 39 20 40 22 40 70 l0 50 -57 -1 c-32 -1 -65 -3 -74 -6z"/>
<path d="M4036 2352 c-4 -6 30 -137 38 -149 1 -1 12 0 25 4 20 5 22 10 16 41
-13 68 -61 132 -79 104z"/>
<path d="M4652 2286 c2 -15 8 -26 13 -26 15 0 12 43 -3 48 -10 3 -13 -4 -10
-22z"/>
<path d="M4518 2292 c-27 -5 -25 -62 1 -62 26 0 32 11 23 41 -5 16 -13 23 -24
21z"/>
<path d="M4566 2273 c9 -37 9 -36 39 -29 20 5 26 12 23 29 -2 17 -11 23 -36
25 -31 3 -32 2 -26 -25z"/>
<path d="M4423 2273 c-15 -5 -17 -32 -5 -51 7 -9 15 -10 35 -3 36 14 39 61 5
60 -13 0 -29 -3 -35 -6z"/>
<path d="M4660 2189 c0 -24 4 -38 10 -34 6 3 10 22 10 41 0 19 -4 34 -10 34
-5 0 -10 -18 -10 -41z"/>
<path d="M4583 2184 c7 -44 9 -46 31 -38 10 4 16 18 16 40 0 30 -3 34 -26 34
-25 0 -26 -2 -21 -36z"/>
<path d="M4510 2171 c0 -26 5 -41 13 -41 25 0 39 18 35 46 -2 21 -9 30 -25 32
-21 3 -23 -1 -23 -37z"/>
<path d="M4442 2191 c-8 -5 -12 -21 -10 -37 2 -21 9 -30 26 -32 20 -3 22 1 22
37 0 41 -10 50 -38 32z"/>
<path d="M4596 2095 c6 -31 11 -41 18 -34 2 2 -2 18 -10 34 l-14 30 6 -30z"/>
<path d="M4613 2033 c-24 -9 -14 -33 13 -33 18 0 25 5 22 17 -3 18 -16 24 -35
16z"/>
<path d="M346 1988 c-12 -47 -8 -58 24 -58 24 0 30 4 30 21 0 51 -42 80 -54
37z"/>
<path d="M330 1843 l0 -70 38 -7 c20 -3 56 -6 79 -6 50 0 61 21 39 74 -16 39
-53 62 -115 72 l-41 7 0 -70z"/>
<path d="M254 1866 c-24 -24 -34 -43 -34 -65 0 -29 2 -31 39 -31 37 0 39 2 45
38 9 56 7 92 -5 92 -6 0 -26 -15 -45 -34z"/>
<path d="M152 1788 c7 -20 48 -23 48 -4 0 11 -9 16 -26 16 -16 0 -24 -5 -22
-12z"/>
<path d="M520 1780 c0 -13 7 -20 18 -20 26 0 34 11 21 27 -17 20 -39 16 -39
-7z"/>
<path d="M224 1723 c9 -36 39 -77 60 -81 13 -3 16 6 16 52 l0 56 -41 0 c-40 0
-41 -1 -35 -27z"/>
<path d="M320 1685 c0 -53 1 -55 26 -55 39 0 92 29 120 65 13 17 24 35 24 38
0 4 -38 7 -85 7 l-85 0 0 -55z"/>
<path d="M320 1581 c0 -39 15 -47 34 -19 23 32 20 48 -9 48 -21 0 -25 -5 -25
-29z"/>
<path d="M1535 1445 c-38 -13 -88 -27 -110 -30 l-40 -7 95 -32 c52 -18 125
-44 162 -59 36 -15 79 -27 95 -27 26 0 207 79 199 87 -2 2 -53 17 -112 33 -60
16 -126 36 -146 44 -48 21 -59 20 -143 -9z"/>
<path d="M1355 1382 c-16 -16 -1 -41 33 -55 20 -8 75 -32 122 -52 47 -20 111
-44 143 -55 56 -17 57 -17 59 1 0 10 1 24 2 30 2 18 -345 145 -359 131z"/>
<path d="M1910 1330 c-30 -16 -80 -38 -111 -50 -49 -19 -58 -26 -61 -52 -4
-27 -3 -29 21 -23 14 3 68 26 119 50 86 42 92 46 92 75 0 16 -1 30 -2 30 -2
-1 -28 -14 -58 -30z"/>
<path d="M1347 1172 c-3 -81 -2 -151 2 -155 11 -11 33 204 25 253 -13 78 -21
48 -27 -98z"/>
<path d="M1396 1175 c-4 -69 -10 -133 -13 -142 -4 -11 -2 -14 8 -11 11 3 16
36 21 134 4 71 4 132 -1 137 -4 4 -11 -49 -15 -118z"/>
<path d="M1936 1252 c-7 -12 -20 -308 -13 -302 3 3 10 52 17 110 6 58 14 126
17 153 4 30 2 47 -5 47 -6 0 -13 -4 -16 -8z"/>
<path d="M1883 1233 c-10 -4 -13 -40 -13 -138 0 -141 14 -188 25 -83 10 97 3
226 -12 221z"/>
<path d="M1551 1150 l2 -85 8 75 c4 44 4 79 -2 85 -5 5 -8 -23 -8 -75z"/>
<path d="M1590 1134 c0 -47 4 -73 10 -69 6 3 10 37 10 76 0 39 -4 69 -10 69
-6 0 -10 -32 -10 -76z"/>
<path d="M1691 1023 c1 -119 4 -144 9 -103 12 83 12 260 0 260 -6 0 -9 -58 -9
-157z"/>
<path d="M1735 1168 c-2 -7 -5 -77 -7 -156 -2 -116 -1 -139 10 -125 7 10 12
51 12 109 0 50 3 112 6 138 5 32 3 46 -5 46 -6 0 -14 -6 -16 -12z"/>
<path d="M3375 1159 c-37 -18 -65 -44 -65 -60 0 -4 13 -12 29 -17 41 -15 66
-64 52 -104 -6 -17 -8 -48 -5 -69 4 -25 2 -44 -6 -54 -20 -24 -5 -30 81 -34
71 -3 83 0 124 23 25 15 45 29 45 32 0 27 -33 73 -63 87 -36 18 -47 34 -47 71
0 19 -8 25 -42 32 -35 7 -44 14 -46 33 -2 13 6 36 17 52 l22 29 -28 0 c-15 -1
-46 -10 -68 -21z m91 -225 c4 -17 1 -31 -10 -42 -15 -15 -17 -15 -32 0 -11 11
-14 25 -10 42 9 35 43 35 52 0z"/>
<path d="M3435 920 c3 -5 8 -10 11 -10 2 0 4 5 4 10 0 6 -5 10 -11 10 -5 0 -7
-4 -4 -10z"/>
<path d="M3476 1149 c-33 -39 -33 -59 0 -59 40 0 61 -17 68 -54 5 -25 16 -40
41 -55 20 -11 40 -32 47 -46 16 -37 26 -31 34 20 13 88 -25 169 -96 205 -52
27 -64 25 -94 -11z"/>
<path d="M3286 1048 c-18 -69 18 -183 58 -183 17 0 19 9 21 82 2 87 -5 103
-51 117 -17 5 -23 1 -28 -16z"/>
<path d="M4463 744 c-39 -52 -40 -54 -10 -54 20 0 25 8 34 47 6 27 11 49 10
49 -1 1 -17 -18 -34 -42z"/>
<path d="M4514 744 l-11 -46 40 6 c22 4 44 9 49 12 9 6 -49 74 -62 74 -3 0
-10 -21 -16 -46z"/>
<path d="M4600 760 c22 -19 38 -26 44 -20 11 11 12 11 -39 33 l-40 17 35 -30z"/>
<path d="M4650 715 c-9 -11 -8 -24 4 -63 9 -26 26 -99 39 -162 20 -103 24
-115 42 -112 44 8 47 22 20 117 -34 120 -76 235 -85 235 -4 0 -13 -7 -20 -15z"/>
<path d="M4542 680 c-18 -4 -35 -10 -38 -12 -6 -7 21 -133 53 -245 18 -64 30
-93 41 -93 31 0 92 24 92 35 0 28 -32 185 -52 253 -23 78 -24 79 -96 62z"/>
<path d="M4420 648 c1 -47 49 -258 66 -295 19 -37 48 -54 64 -36 5 4 -4 54
-20 110 -15 56 -34 133 -41 172 -12 68 -13 71 -41 71 -22 0 -28 -4 -28 -22z"/>
<path d="M4738 353 c-20 -5 -32 -39 -26 -74 3 -21 8 -16 31 29 15 28 24 51 20
51 -5 -1 -16 -3 -25 -6z"/>
<path d="M4648 316 c-21 -5 -38 -13 -38 -17 0 -4 14 -17 31 -30 36 -25 52 -16
47 27 -3 28 -4 29 -40 20z"/>
<path d="M4531 286 c2 -3 27 -14 54 -26 l50 -21 -24 25 c-16 17 -35 26 -54 26
-17 0 -28 -2 -26 -4z"/>
<path d="M1056 494 l-38 -26 -39 21 c-51 29 -62 20 -57 -40 4 -41 2 -50 -14
-55 -10 -3 -26 -17 -35 -31 -14 -21 -14 -26 -2 -34 8 -5 22 -9 31 -9 23 0 48
-27 48 -53 1 -62 50 -54 71 10 17 54 27 63 69 63 41 0 64 18 54 44 -3 9 -9 16
-13 16 -3 1 -19 11 -35 24 l-29 24 22 36 c27 43 19 45 -33 10z"/>
<path d="M955 5070 c27 -27 51 -50 54 -50 8 0 -84 98 -94 99 -5 1 13 -21 40
-49z"/>
<path d="M960 5114 c0 -3 32 -40 70 -83 l71 -78 51 26 c38 18 77 27 157 34
l106 10 -49 48 -49 49 -69 0 c-37 0 -77 -6 -88 -12 -15 -10 -25 -10 -38 -2
-17 11 -162 18 -162 8z m148 -22 c2 -7 -6 -12 -17 -12 -21 0 -27 11 -14 24 9
9 26 2 31 -12z m202 -2 c0 -5 -17 -12 -37 -16 -21 -4 -44 -11 -50 -16 -7 -6
-19 -8 -27 -5 -7 3 -19 0 -25 -6 -6 -6 -14 -8 -17 -4 -11 11 28 48 45 42 9 -2
21 -1 28 3 18 11 83 13 83 2z m8 -26 c36 -10 25 -24 -18 -24 -38 0 -54 13 -27
23 17 7 19 7 45 1z m-178 -23 c0 -11 -39 -25 -47 -18 -3 3 -2 10 2 16 8 13 45
15 45 2z m80 -11 c0 -13 -64 -29 -69 -17 -2 5 3 13 10 18 19 12 59 11 59 -1z"/>
<path d="M1375 5097 c13 -20 48 -50 81 -70 7 -4 22 14 38 43 l27 50 -33 0
c-19 0 -40 -6 -47 -12 -11 -10 -14 -10 -18 0 -3 6 -18 12 -34 12 -28 0 -29 -1
-14 -23z"/>
<path d="M1540 5095 c-33 -36 -22 -37 30 -4 41 26 43 29 19 29 -14 0 -36 -11
-49 -25z"/>
<path d="M3467 5095 c-21 -7 -40 -15 -43 -18 -2 -2 14 -12 37 -22 22 -10 49
-29 58 -42 l18 -22 7 37 c11 68 8 82 -16 82 -13 -1 -40 -7 -61 -15z"/>
<path d="M3324 5006 c-45 -45 -53 -71 -35 -118 18 -45 49 -68 93 -68 35 0 47
6 84 43 72 73 69 132 -9 167 -63 29 -84 26 -133 -24z"/>
<path d="M1220 4981 c-14 -5 -44 -18 -68 -30 -36 -18 -41 -25 -32 -37 16 -18
34 -18 51 2 20 24 66 45 133 59 l61 13 -60 0 c-33 0 -71 -3 -85 -7z"/>
<path d="M1246 4935 c-53 -19 -99 -64 -84 -82 9 -12 19 -7 52 25 23 22 55 47
71 55 37 20 14 21 -39 2z"/>
<path d="M3241 4853 c-6 -21 -11 -50 -11 -66 0 -30 -4 -30 95 -5 l39 10 -32
14 c-18 7 -42 29 -53 49 -12 19 -23 35 -25 35 -1 0 -8 -17 -13 -37z"/>
<path d="M5025 4779 l-70 -18 65 5 c77 6 100 12 100 25 0 12 -11 10 -95 -12z"/>
<path d="M4882 4698 c-22 -29 -50 -62 -62 -73 -13 -11 -46 -56 -75 -100 -69
-107 -77 -122 -65 -130 5 -3 10 -2 10 2 0 5 38 52 85 104 84 93 175 217 175
238 0 27 -32 7 -68 -41z"/>
<path d="M5033 4742 c-22 -7 -22 -8 11 -47 l34 -40 21 19 c14 13 21 29 19 45
-2 21 -9 26 -33 28 -16 1 -40 -2 -52 -5z"/>
<path d="M4967 4717 c-3 -8 29 -51 73 -98 44 -46 79 -80 80 -74 0 5 -23 33
-52 62 -29 29 -46 53 -39 53 8 0 2 14 -16 34 -31 39 -39 42 -46 23z"/>
<path d="M4917 4636 c-15 -25 -64 -84 -109 -132 -64 -69 -78 -88 -66 -95 10
-5 34 -2 62 7 34 12 46 21 46 36 0 20 9 21 50 4 11 -5 24 7 44 38 15 24 39 54
52 67 13 12 24 27 24 31 0 10 -62 88 -70 88 -3 0 -18 -20 -33 -44z"/>
<path d="M5104 4649 c-3 -6 -1 -16 5 -22 8 -8 11 -5 11 11 0 24 -5 28 -16 11z"/>
<path d="M4931 4378 c18 -27 41 -56 53 -65 19 -17 19 -17 -1 12 -12 17 -36 46
-53 65 l-32 35 33 -47z"/>
<path d="M4890 4380 c11 -16 26 -33 32 -36 7 -4 -1 9 -16 29 -34 44 -46 50
-16 7z"/>
<path d="M4770 4350 c6 -11 13 -20 16 -20 2 0 0 9 -6 20 -6 11 -13 20 -16 20
-2 0 0 -9 6 -20z"/>
<path d="M4735 4340 c10 -11 20 -20 22 -20 2 0 -1 9 -7 20 -6 11 -16 20 -22
20 -6 0 -3 -9 7 -20z"/>
<path d="M4975 4280 c10 -11 20 -20 23 -20 3 0 -3 9 -13 20 -10 11 -20 20 -23
20 -3 0 3 -9 13 -20z"/>
<path d="M4790 4288 c0 -16 124 -163 138 -163 33 0 24 39 -19 80 l-42 40 38
-48 c21 -26 35 -51 31 -55 -7 -7 -34 20 -108 107 -21 25 -38 42 -38 39z"/>
<path d="M5010 4256 c0 -2 8 -10 18 -17 15 -13 16 -12 3 4 -13 16 -21 21 -21
13z"/>
</g>
</svg>
